<svg width="13" height="13" viewBox="0 0 13 13" fill="none" xmlns="http://www.w3.org/2000/svg">
<path fill-rule="evenodd" clip-rule="evenodd" d="M11.5613 2.74252C11.7121 2.89345 11.7969 3.09814 11.7969 3.31157C11.7969 3.52499 11.7121 3.72968 11.5613 3.88061L5.52842 9.91344C5.4487 9.99319 5.35405 10.0564 5.24987 10.0996C5.14569 10.1428 5.03404 10.165 4.92128 10.165C4.80852 10.165 4.69686 10.1428 4.59268 10.0996C4.48851 10.0564 4.39386 9.99319 4.31413 9.91344L1.31676 6.91661C1.23989 6.84237 1.17857 6.75355 1.13639 6.65535C1.09421 6.55716 1.072 6.45154 1.07108 6.34467C1.07015 6.2378 1.09051 6.13181 1.13098 6.0329C1.17145 5.93398 1.23122 5.84411 1.30679 5.76854C1.38236 5.69297 1.47223 5.6332 1.57114 5.59273C1.67006 5.55226 1.77605 5.5319 1.88292 5.53283C1.98979 5.53376 2.0954 5.55596 2.1936 5.59814C2.2918 5.64033 2.38061 5.70164 2.45486 5.77852L4.92101 8.24466L10.4226 2.74252C10.4974 2.66772 10.5861 2.60839 10.6838 2.56791C10.7815 2.52743 10.8862 2.50659 10.9919 2.50659C11.0977 2.50659 11.2024 2.52743 11.3001 2.56791C11.3978 2.60839 11.4865 2.66772 11.5613 2.74252Z" fill="white"/>
</svg>
