<svg width="51" height="51" viewBox="0 0 51 51" fill="none" xmlns="http://www.w3.org/2000/svg">
<path d="M25.5 46.5227C13.7636 46.5227 4.25 37.0091 4.25 25.2727C4.25 13.5363 13.7636 4.02271 25.5 4.02271C37.2364 4.02271 46.75 13.5385 46.75 25.2727C46.75 37.007 37.2364 46.5227 25.5 46.5227ZM25.5 14.6477C24.9364 14.6477 24.3959 14.8716 23.9974 15.2701C23.5989 15.6686 23.375 16.2091 23.375 16.7727V27.3977C23.375 27.9613 23.5989 28.5018 23.9974 28.9003C24.3959 29.2988 24.9364 29.5227 25.5 29.5227C26.0636 29.5227 26.6041 29.2988 27.0026 28.9003C27.4011 28.5018 27.625 27.9613 27.625 27.3977V16.7727C27.625 16.2091 27.4011 15.6686 27.0026 15.2701C26.6041 14.8716 26.0636 14.6477 25.5 14.6477ZM25.5 35.8977C26.0636 35.8977 26.6041 35.6738 27.0026 35.2753C27.4011 34.8768 27.625 34.3363 27.625 33.7727C27.625 33.2091 27.4011 32.6686 27.0026 32.2701C26.6041 31.8716 26.0636 31.6477 25.5 31.6477C24.9364 31.6477 24.3959 31.8716 23.9974 32.2701C23.5989 32.6686 23.375 33.2091 23.375 33.7727C23.375 34.3363 23.5989 34.8768 23.9974 35.2753C24.3959 35.6738 24.9364 35.8977 25.5 35.8977Z" fill="#43A4DB"/>
</svg>
