<svg width="20" height="19" viewBox="0 0 20 19" fill="none" xmlns="http://www.w3.org/2000/svg">
<path d="M9.99998 13.4582C9.55795 13.4582 9.13403 13.2914 8.82147 12.9944C8.50891 12.6975 8.33331 12.2948 8.33331 11.8748C8.33331 10.9961 9.07498 10.2915 9.99998 10.2915C10.442 10.2915 10.8659 10.4583 11.1785 10.7553C11.4911 11.0522 11.6666 11.4549 11.6666 11.8748C11.6666 12.2948 11.4911 12.6975 11.1785 12.9944C10.8659 13.2914 10.442 13.4582 9.99998 13.4582ZM15 15.8332V7.9165H4.99998V15.8332H15ZM15 6.33317C15.442 6.33317 15.8659 6.49999 16.1785 6.79692C16.4911 7.09385 16.6666 7.49658 16.6666 7.9165V15.8332C16.6666 16.2531 16.4911 16.6558 16.1785 16.9528C15.8659 17.2497 15.442 17.4165 15 17.4165H4.99998C4.55795 17.4165 4.13403 17.2497 3.82147 16.9528C3.50891 16.6558 3.33331 16.2531 3.33331 15.8332V7.9165C3.33331 7.03775 4.07498 6.33317 4.99998 6.33317H5.83331V4.74984C5.83331 3.70002 6.2723 2.6932 7.0537 1.95087C7.8351 1.20854 8.89491 0.791504 9.99998 0.791504C10.5472 0.791504 11.089 0.893889 11.5945 1.09281C12.1 1.29174 12.5593 1.58331 12.9463 1.95087C13.3332 2.31844 13.6401 2.7548 13.8495 3.23505C14.0589 3.7153 14.1666 4.23002 14.1666 4.74984V6.33317H15ZM9.99998 2.37484C9.33694 2.37484 8.70105 2.62506 8.23221 3.07046C7.76337 3.51586 7.49998 4.11995 7.49998 4.74984V6.33317H12.5V4.74984C12.5 4.11995 12.2366 3.51586 11.7677 3.07046C11.2989 2.62506 10.663 2.37484 9.99998 2.37484Z" fill="#858585"/>
</svg>
