<svg width="15" height="15" viewBox="0 0 15 15" fill="none" xmlns="http://www.w3.org/2000/svg">
<path fill-rule="evenodd" clip-rule="evenodd" d="M13.138 3.11624C13.3094 3.28776 13.4058 3.52036 13.4058 3.76289C13.4058 4.00542 13.3094 4.23802 13.138 4.40953L6.28249 11.265C6.19189 11.3556 6.08433 11.4275 5.96595 11.4766C5.84757 11.5256 5.72069 11.5508 5.59255 11.5508C5.46441 11.5508 5.33753 11.5256 5.21915 11.4766C5.10077 11.4275 4.99321 11.3556 4.90261 11.265L1.49651 7.85953C1.40916 7.77516 1.33948 7.67424 1.29154 7.56265C1.24361 7.45106 1.21838 7.33104 1.21732 7.2096C1.21626 7.08815 1.23941 6.96771 1.28539 6.85531C1.33138 6.7429 1.3993 6.64078 1.48518 6.5549C1.57105 6.46903 1.67317 6.40111 1.78558 6.35512C1.89798 6.30914 2.01842 6.28599 2.13987 6.28705C2.26131 6.2881 2.38133 6.31334 2.49292 6.36127C2.60451 6.40921 2.70543 6.47888 2.7898 6.56624L5.59224 9.36868L11.8441 3.11624C11.929 3.03125 12.0299 2.96382 12.1409 2.91782C12.2519 2.87182 12.3709 2.84814 12.491 2.84814C12.6112 2.84814 12.7302 2.87182 12.8412 2.91782C12.9522 2.96382 13.053 3.03125 13.138 3.11624Z" fill="white"/>
</svg>
