<svg width="15" height="15" viewBox="0 0 15 15" fill="none" xmlns="http://www.w3.org/2000/svg">
<path d="M13.75 5.10123V5.14686C13.75 5.68436 13.75 5.95373 13.6206 6.17373C13.4912 6.39373 13.2556 6.52436 12.7856 6.78623L12.29 7.06123C12.6312 5.90623 12.7456 4.66498 12.7875 3.60373L12.7937 3.46561L12.795 3.43311C13.2019 3.57436 13.4306 3.67998 13.5731 3.87748C13.75 4.12311 13.75 4.44936 13.75 5.10123ZM1.25 5.10123V5.14686C1.25 5.68436 1.25 5.95373 1.37938 6.17373C1.50875 6.39373 1.74437 6.52436 2.21438 6.78623L2.71062 7.06123C2.36875 5.90623 2.25437 4.66498 2.2125 3.60373L2.20625 3.46561L2.20563 3.43311C1.79813 3.57436 1.56938 3.67998 1.42687 3.87748C1.25 4.12311 1.25 4.44998 1.25 5.10123Z" fill="#E4FBFF"/>
<path fill-rule="evenodd" clip-rule="evenodd" d="M7.5 1.25002C8.615 1.25002 9.53313 1.34814 10.2356 1.46689C10.9475 1.58689 11.3031 1.64689 11.6006 2.01314C11.8981 2.37939 11.8819 2.77502 11.8506 3.56627C11.7431 6.28439 11.1569 9.67877 7.96875 9.97877V12.1875H8.8625C9.00693 12.1876 9.14688 12.2377 9.25854 12.3293C9.3702 12.4209 9.44669 12.5484 9.475 12.69L9.59375 13.2813H11.25C11.3743 13.2813 11.4935 13.3307 11.5815 13.4186C11.6694 13.5065 11.7188 13.6257 11.7188 13.75C11.7188 13.8743 11.6694 13.9936 11.5815 14.0815C11.4935 14.1694 11.3743 14.2188 11.25 14.2188H3.75C3.62568 14.2188 3.50645 14.1694 3.41854 14.0815C3.33064 13.9936 3.28125 13.8743 3.28125 13.75C3.28125 13.6257 3.33064 13.5065 3.41854 13.4186C3.50645 13.3307 3.62568 13.2813 3.75 13.2813H5.40625L5.525 12.69C5.55331 12.5484 5.6298 12.4209 5.74146 12.3293C5.85312 12.2377 5.99307 12.1876 6.1375 12.1875H7.03125V9.97877C3.84375 9.67877 3.2575 6.28377 3.15 3.56627C3.11812 2.77502 3.1025 2.37877 3.4 2.01314C3.69688 1.64689 4.0525 1.58689 4.76438 1.46689C5.66865 1.31877 6.58368 1.24622 7.5 1.25002ZM8.095 3.87439L8.03375 3.76439C7.79625 3.33752 7.6775 3.12502 7.5 3.12502C7.3225 3.12502 7.20375 3.33752 6.96625 3.76439L6.905 3.87439C6.8375 3.99564 6.80375 4.05564 6.75125 4.09564C6.69812 4.13564 6.6325 4.15064 6.50125 4.18002L6.3825 4.20752C5.92125 4.31189 5.69062 4.36377 5.63562 4.54002C5.58063 4.71627 5.73812 4.90064 6.0525 5.26814L6.13375 5.36314C6.22312 5.46752 6.26812 5.51939 6.28812 5.58439C6.30812 5.64939 6.30125 5.71877 6.28812 5.85814L6.27563 5.98502C6.22813 6.47564 6.20438 6.72127 6.3475 6.83002C6.49125 6.93877 6.7075 6.83939 7.13938 6.64064L7.25062 6.58939C7.37375 6.53314 7.435 6.50502 7.5 6.50502C7.565 6.50502 7.62625 6.53314 7.74937 6.58939L7.86062 6.64064C8.2925 6.84002 8.50875 6.93877 8.6525 6.83002C8.79625 6.72127 8.77187 6.47564 8.72437 5.98502L8.71187 5.85814C8.69875 5.71877 8.69187 5.64939 8.71187 5.58439C8.73187 5.51939 8.77688 5.46752 8.86625 5.36314L8.9475 5.26814C9.26187 4.90064 9.41937 4.71689 9.36437 4.54002C9.30937 4.36377 9.07875 4.31189 8.6175 4.20752L8.49875 4.18002C8.3675 4.15064 8.30187 4.13627 8.24875 4.09564C8.19625 4.05564 8.1625 3.99564 8.095 3.87439Z" fill="#E4FBFF"/>
</svg>
